<svg width="720" height="460" viewBox="0 0 720 460" xmlns="http://www.w3.org/2000/svg" font-family="-apple-system, BlinkMacSystemFont, 'Segoe UI', Roboto, Helvetica, Arial, sans-serif">
  <defs>
    <linearGradient id="wall" x1="0" y1="0" x2="1" y2="1">
      <stop offset="0" stop-color="#4b4bd6"/>
      <stop offset="0.55" stop-color="#7a5cc8"/>
      <stop offset="1" stop-color="#c065c4"/>
    </linearGradient>
    <linearGradient id="green" x1="0" y1="0" x2="1" y2="0">
      <stop offset="0" stop-color="#34d27b"/>
      <stop offset="1" stop-color="#2bb673"/>
    </linearGradient>
    <filter id="soft" x="-20%" y="-20%" width="140%" height="140%">
      <feDropShadow dx="0" dy="6" stdDeviation="10" flood-color="#000" flood-opacity="0.18"/>
    </filter>
  </defs>

  <!-- wallpaper -->
  <rect width="720" height="460" rx="28" fill="url(#wall)"/>
  <rect width="720" height="460" rx="28" fill="#ffffff" opacity="0.04"/>

  <!-- header -->
  <text x="40" y="56" fill="#ffffff" font-size="27" font-weight="700">My Home</text>
  <text x="40" y="80" fill="#ffffff" opacity="0.75" font-size="14" font-weight="500">Living Room · Air Quality Sensor</text>

  <!-- ===== tiles row ===== -->
  <!-- Tile 1: Air Quality -->
  <g filter="url(#soft)">
    <rect x="40" y="104" width="200" height="128" rx="22" fill="#ffffff" opacity="0.16"/>
  </g>
  <rect x="40" y="104" width="200" height="128" rx="22" fill="none" stroke="#ffffff" stroke-opacity="0.2"/>
  <circle cx="74" cy="142" r="20" fill="url(#green)"/>
  <g stroke="#ffffff" stroke-width="2.6" stroke-linecap="round" fill="none" opacity="0.95">
    <path d="M65 137 h14 a4 4 0 1 0 -4 -4"/>
    <path d="M65 143 h18 a4 4 0 1 1 -4 4"/>
    <path d="M65 149 h11"/>
  </g>
  <text x="64" y="194" fill="#ffffff" font-size="25" font-weight="700">Excellent</text>
  <text x="64" y="216" fill="#ffffff" opacity="0.78" font-size="13" font-weight="500">Air Quality</text>

  <!-- Tile 2: Temperature -->
  <g filter="url(#soft)">
    <rect x="260" y="104" width="200" height="128" rx="22" fill="#ffffff" opacity="0.16"/>
  </g>
  <rect x="260" y="104" width="200" height="128" rx="22" fill="none" stroke="#ffffff" stroke-opacity="0.2"/>
  <circle cx="294" cy="142" r="20" fill="#ff8a3d"/>
  <g fill="none" stroke="#ffffff" stroke-width="2.6" stroke-linecap="round">
    <path d="M294 133 v12"/>
  </g>
  <rect x="290.5" y="131" width="7" height="14" rx="3.5" fill="#ffffff"/>
  <circle cx="294" cy="150" r="5.5" fill="#ffffff"/>
  <text x="284" y="194" fill="#ffffff" font-size="27" font-weight="700">21.4°</text>
  <text x="284" y="216" fill="#ffffff" opacity="0.78" font-size="13" font-weight="500">Temperature</text>

  <!-- Tile 3: Humidity -->
  <g filter="url(#soft)">
    <rect x="480" y="104" width="200" height="128" rx="22" fill="#ffffff" opacity="0.16"/>
  </g>
  <rect x="480" y="104" width="200" height="128" rx="22" fill="none" stroke="#ffffff" stroke-opacity="0.2"/>
  <circle cx="514" cy="142" r="20" fill="#3aa0ff"/>
  <path d="M514 130 C520 138 524 143 524 148 a10 10 0 1 1 -20 0 c0 -5 4 -10 10 -18 Z" fill="#ffffff"/>
  <text x="504" y="194" fill="#ffffff" font-size="27" font-weight="700">46%</text>
  <text x="504" y="216" fill="#ffffff" opacity="0.78" font-size="13" font-weight="500">Humidity</text>

  <!-- ===== detail card ===== -->
  <g filter="url(#soft)">
    <rect x="40" y="256" width="640" height="160" rx="26" fill="#ffffff" opacity="0.16"/>
  </g>
  <rect x="40" y="256" width="640" height="160" rx="26" fill="none" stroke="#ffffff" stroke-opacity="0.2"/>

  <text x="64" y="290" fill="#ffffff" opacity="0.7" font-size="13" font-weight="600" letter-spacing="0.5">AIR QUALITY SENSOR</text>
  <circle cx="70" cy="318" r="7" fill="url(#green)"/>
  <text x="86" y="324" fill="#ffffff" font-size="22" font-weight="700">Excellent</text>
  <text x="616" y="324" fill="#ffffff" opacity="0.7" font-size="12" font-weight="500" text-anchor="end">WHO / EU thresholds</text>

  <!-- PM2.5 row -->
  <text x="64" y="362" fill="#ffffff" font-size="14" font-weight="600">PM2.5</text>
  <rect x="150" y="354" width="390" height="9" rx="4.5" fill="#ffffff" opacity="0.2"/>
  <rect x="150" y="354" width="62" height="9" rx="4.5" fill="url(#green)"/>
  <text x="616" y="363" fill="#ffffff" font-size="14" font-weight="600" text-anchor="end">8 µg/m³</text>

  <!-- PM10 row -->
  <text x="64" y="394" fill="#ffffff" font-size="14" font-weight="600">PM10</text>
  <rect x="150" y="386" width="390" height="9" rx="4.5" fill="#ffffff" opacity="0.2"/>
  <rect x="150" y="386" width="94" height="9" rx="4.5" fill="url(#green)"/>
  <text x="616" y="395" fill="#ffffff" font-size="14" font-weight="600" text-anchor="end">12 µg/m³</text>
</svg>
